<svg width="55" height="54" viewBox="0 0 55 54" fill="none" xmlns="http://www.w3.org/2000/svg">
<path fill-rule="evenodd" clip-rule="evenodd" d="M15.2383 43.5093L21.791 45.2478V42.9744L22.3259 42.4395H26.0702V45.114V46.9861H22.0585L17.1105 44.8465L15.2383 43.5093Z" fill="#CDBDB2"/>
<path fill-rule="evenodd" clip-rule="evenodd" d="M36.6387 43.5093L30.2198 45.2478V42.9744L29.6849 42.4395H25.9406V45.114V46.9861H29.9524L34.9001 44.8465L36.6387 43.5093Z" fill="#CDBDB2"/>
<path fill-rule="evenodd" clip-rule="evenodd" d="M22.3357 38.5613L21.8008 42.9742L22.4693 42.4393H29.4231L30.2254 42.9742L29.6905 38.5613L28.6207 37.8926L23.2717 38.0264L22.3357 38.5613Z" fill="#393939"/>
<path fill-rule="evenodd" clip-rule="evenodd" d="M18.7188 8.73828L21.9282 16.227L23.3993 38.0245H28.6145L30.2192 16.227L33.1612 8.73828H18.7188Z" fill="#F89C35"/>
<path fill-rule="evenodd" clip-rule="evenodd" d="M4.68184 25.1895L0.9375 36.0212L10.2984 35.4863H16.3159V30.806L16.0485 21.1777L14.7112 22.2475L4.68184 25.1895Z" fill="#F89D35"/>
<path fill-rule="evenodd" clip-rule="evenodd" d="M11.7695 26.3926L22.7351 26.66L21.5317 32.2766L16.3162 30.9393L11.7695 26.3926Z" fill="#D87C30"/>
<path fill-rule="evenodd" clip-rule="evenodd" d="M11.7695 26.5254L16.3162 30.8046V35.0839L11.7695 26.5254Z" fill="#EA8D3A"/>
<path fill-rule="evenodd" clip-rule="evenodd" d="M16.3105 30.9355L21.6596 32.2728L23.3982 38.0232L22.1945 38.6917L16.3105 35.2148V30.9355Z" fill="#F89D35"/>
<path fill-rule="evenodd" clip-rule="evenodd" d="M16.3081 35.2168L15.2383 43.5078L22.3259 38.5601L16.3081 35.2168Z" fill="#EB8F35"/>
<path fill-rule="evenodd" clip-rule="evenodd" d="M22.7259 26.6562L23.3947 38.0231L21.3887 32.206L22.7259 26.6562Z" fill="#EA8E3A"/>
<path fill-rule="evenodd" clip-rule="evenodd" d="M10.1602 35.3506L16.3116 35.2168L15.2418 43.5078L10.1602 35.3506Z" fill="#D87C30"/>
<path fill-rule="evenodd" clip-rule="evenodd" d="M3.87948 47.1214L15.2461 43.5107L10.1645 35.3535L0.9375 36.022L3.87948 47.1214Z" fill="#EB8F35"/>
<path fill-rule="evenodd" clip-rule="evenodd" d="M21.9327 16.2305L16.1826 21.0446L11.7695 26.3937L22.7351 26.795L21.9327 16.2305Z" fill="#E8821E"/>
<path fill-rule="evenodd" clip-rule="evenodd" d="M15.2383 43.5083L22.3259 38.5605L21.791 42.8398V45.2469L16.9768 44.3107L15.2383 43.5083Z" fill="#DFCEC3"/>
<path fill-rule="evenodd" clip-rule="evenodd" d="M36.6387 43.5083L29.6849 38.5605L30.2198 42.8398V45.2469L35.034 44.3107L36.6387 43.5083Z" fill="#DFCEC3"/>
<path fill-rule="evenodd" clip-rule="evenodd" d="M19.7945 29.0645L21.2656 32.1403L16.0502 30.803L19.7945 29.0645Z" fill="#393939"/>
<path fill-rule="evenodd" clip-rule="evenodd" d="M3.74609 2.45508L21.9329 16.2288L18.8573 8.7401L3.74609 2.45508Z" fill="#E88F35"/>
<path fill-rule="evenodd" clip-rule="evenodd" d="M3.74301 2.45508L1.33594 9.81003L2.6732 17.8336L1.73712 18.3685L3.07438 19.5721L2.00457 20.5081L3.47556 21.8454L2.53947 22.6478L4.6791 25.3223L14.7086 22.2466C19.6119 18.3239 22.0189 16.318 21.9298 16.2289C21.8406 16.1397 15.7784 11.5485 3.74301 2.45508Z" fill="#8E5A30"/>
<path fill-rule="evenodd" clip-rule="evenodd" d="M47.2068 25.1876L50.9512 36.0193L41.5903 35.4844H35.5728V30.8041L35.8402 21.1758L37.1775 22.2456L47.2068 25.1876Z" fill="#F89D35"/>
<path fill-rule="evenodd" clip-rule="evenodd" d="M40.1191 26.3926L29.1536 26.66L30.357 32.2765L35.5724 30.9393L40.1191 26.3926Z" fill="#D87C30"/>
<path fill-rule="evenodd" clip-rule="evenodd" d="M40.1191 26.5234L35.5724 30.8027V35.0819L40.1191 26.5234Z" fill="#EA8D3A"/>
<path fill-rule="evenodd" clip-rule="evenodd" d="M35.5781 30.9336L30.2291 32.2709L28.4905 38.0212L29.6942 38.6898L35.5781 35.2129V30.9336Z" fill="#F89D35"/>
<path fill-rule="evenodd" clip-rule="evenodd" d="M35.5689 35.2148L36.6387 43.5059L29.6849 38.6917L35.5689 35.2148Z" fill="#EB8F35"/>
<path fill-rule="evenodd" clip-rule="evenodd" d="M29.1491 26.6582L28.4803 38.0251L30.4863 32.2079L29.1491 26.6582Z" fill="#EA8E3A"/>
<path fill-rule="evenodd" clip-rule="evenodd" d="M41.7246 35.3487L35.5732 35.2148L36.643 43.5059L41.7246 35.3487Z" fill="#D87C30"/>
<path fill-rule="evenodd" clip-rule="evenodd" d="M48.0092 47.1195L36.6425 43.5087L41.7242 35.3516L50.9512 36.0201L48.0092 47.1195Z" fill="#EB8F35"/>
<path fill-rule="evenodd" clip-rule="evenodd" d="M29.9559 16.2285L35.706 21.0427L40.1191 26.3917L29.1536 26.793L29.9559 16.2285Z" fill="#E8821E"/>
<path fill-rule="evenodd" clip-rule="evenodd" d="M32.0961 29.0625L30.625 32.1383L35.8404 30.8011L32.0961 29.0625Z" fill="#393939"/>
<path fill-rule="evenodd" clip-rule="evenodd" d="M48.1426 2.45312L29.9558 16.2268L33.0314 8.73815L48.1426 2.45312Z" fill="#E88F35"/>
<path fill-rule="evenodd" clip-rule="evenodd" d="M48.1437 2.45312L50.5508 9.80808L49.2135 17.8317L50.1496 18.3666L48.8123 19.5701L49.8821 20.5062L48.4112 21.8435L49.3472 22.6458L47.2076 25.3203L37.1781 22.2446C32.2749 18.322 29.8678 16.3161 29.9569 16.2269C30.0461 16.1378 36.1083 11.5465 48.1437 2.45312Z" fill="#8E5A30"/>
</svg>
