<svg width="56" height="56" viewBox="0 0 56 56" fill="none" xmlns="http://www.w3.org/2000/svg">
<path d="M6.45117 30.081L6.45116 30.081C5.38219 31.0632 5.38219 32.6556 6.45116 33.6378L25.8065 51.4217C26.8755 52.4039 28.6087 52.4039 29.6776 51.4217L29.6776 51.4217C30.7466 50.4395 30.7466 48.8471 29.6776 47.8649L10.3222 30.081C9.25328 29.0988 7.52014 29.0988 6.45117 30.081Z" fill="#E41B9F"/>
<path fill-rule="evenodd" clip-rule="evenodd" d="M2.40194 16.2515L12.2965 7.1603C18.8463 1.14228 26.3252 1.61177 32.1782 6.98968C32.9216 7.67257 33.8505 8.86758 34.4081 9.63585C34.6404 9.93467 34.7796 10.1481 34.9654 10.3187C35.3371 10.6602 35.7087 10.7456 36.4984 10.5322C41.376 9.29447 45.6497 10.6602 49.7375 14.4162C55.4512 19.666 56.055 26.7084 48.8085 33.3668L34.919 46.1286C34.1757 46.8114 33.5719 46.7688 32.8287 46.0859L2.44839 18.1721C1.70514 17.4892 1.6587 16.9344 2.40194 16.2515ZM22.703 21.0744L25.0721 18.8976C26.2799 17.7879 26.4656 16.2514 25.0256 14.9283C23.6321 13.6478 21.9133 13.7758 20.7055 14.8856L18.3364 17.0623C17.5932 17.7452 17.6396 18.3 18.3829 18.9829L20.6126 21.0317C21.3558 21.7146 21.9598 21.7573 22.703 21.0744ZM34.0376 31.4898L40.2623 25.7705C42.074 24.1059 42.4457 22.5694 40.9126 21.1609C39.4262 19.7951 37.7074 20.0938 35.8957 21.7584L29.6711 27.4778C28.9277 28.1607 28.9742 28.7155 29.7174 29.3984L31.9473 31.4472C32.6905 32.13 33.2943 32.1727 34.0376 31.4898Z" fill="#2926CF"/>
</svg>
