<svg width="56" height="56" viewBox="0 0 56 56" fill="none" xmlns="http://www.w3.org/2000/svg">
<path d="M11.4644 17.0148C20.5968 8.01851 35.4033 8.01851 44.5357 17.0148L45.6348 18.0975C46.0914 18.5473 46.0914 19.2766 45.6348 19.7264L41.875 23.4302C41.6467 23.6551 41.2765 23.6551 41.0482 23.4302L39.5357 21.9402C33.1647 15.6642 22.8353 15.6642 16.4643 21.9402L14.8446 23.5358C14.6163 23.7608 14.2461 23.7608 14.0178 23.5358L10.258 19.8321C9.80138 19.3823 9.80138 18.653 10.258 18.2032L11.4644 17.0148ZM52.3113 24.6746L55.6575 27.9709C56.1142 28.4207 56.1142 29.15 55.6575 29.5998L40.5692 44.4635C40.1126 44.9134 39.3722 44.9134 38.9156 44.4636C38.9156 44.4636 38.9156 44.4636 38.9156 44.4635L28.2068 33.9143C28.0926 33.8019 27.9076 33.8019 27.7934 33.9143C27.7934 33.9143 27.7934 33.9143 27.7934 33.9143L17.0848 44.4635C16.6282 44.9134 15.8879 44.9134 15.4313 44.4636C15.4313 44.4636 15.4313 44.4636 15.4313 44.4636L0.342465 29.5996C-0.114155 29.1498 -0.114155 28.4205 0.342465 27.9707L3.6887 24.6744C4.14532 24.2245 4.88564 24.2245 5.34226 24.6744L16.0512 35.2237C16.1654 35.3362 16.3505 35.3362 16.4646 35.2237C16.4646 35.2237 16.4646 35.2237 16.4646 35.2237L27.173 24.6744C27.6297 24.2245 28.37 24.2245 28.8266 24.6743C28.8266 24.6743 28.8266 24.6743 28.8266 24.6743L39.5356 35.2237C39.6497 35.3362 39.8348 35.3362 39.949 35.2237L50.6577 24.6746C51.1144 24.2247 51.8547 24.2247 52.3113 24.6746Z" fill="#3B99FC"/>
</svg>
