<svg width="42" height="56" viewBox="0 0 42 56" fill="none" xmlns="http://www.w3.org/2000/svg">
<path d="M21 0C9.422 0 0 9.48733 0 21.1517C0 37.7253 19.026 54.838 19.8357 55.5567C20.1693 55.853 20.5847 56 21 56C21.4153 56 21.8307 55.853 22.1643 55.559C22.974 54.838 42 37.7253 42 21.1517C42 9.48733 32.578 0 21 0ZM21 32.6667C14.567 32.6667 9.33333 27.433 9.33333 21C9.33333 14.567 14.567 9.33333 21 9.33333C27.433 9.33333 32.6667 14.567 32.6667 21C32.6667 27.433 27.433 32.6667 21 32.6667Z" fill="#21E786"/>
</svg>
