<svg width="56" height="56" viewBox="0 0 56 56" fill="none" xmlns="http://www.w3.org/2000/svg">
<g clip-path="url(#clip0_2608_2137)">
<path d="M51.5066 36.7576C48.078 36.7576 44.7116 36.2214 41.5215 35.1671C39.9583 34.634 38.0367 35.1231 37.0826 36.1029L30.786 40.8562C23.4837 36.9583 18.9856 32.4616 15.1409 25.2141L19.7543 19.0816C20.9529 17.8846 21.3828 16.136 20.8677 14.4954C19.809 11.2885 19.2711 7.92371 19.2711 4.49371C19.2713 2.01585 17.2554 0 14.7777 0H4.49356C2.01585 0 0 2.01585 0 4.49356C0 32.8946 23.1055 56 51.5066 56C53.9843 56 56.0002 53.9841 56.0002 51.5064V41.251C56 38.7734 53.9841 36.7576 51.5066 36.7576Z" fill="#21E786"/>
</g>
<defs>
<clipPath id="clip0_2608_2137">
<rect width="56" height="56" fill="white"/>
</clipPath>
</defs>
</svg>
